<svg width="80" height="80" viewBox="0 0 80 80" fill="none" xmlns="http://www.w3.org/2000/svg">
<path d="M11.4286 0H68.5714C74.8571 0 80 5.14286 80 11.4286V68.5714C80 74.8571 74.8571 80 68.5714 80H11.4286C5.14286 80 0 74.8571 0 68.5714V11.4286C0 5.14286 5.14286 0 11.4286 0Z" fill="#303641"/>
<path d="M55.1461 22.0013C53.4318 22.0013 51.7175 23.4299 51.7175 25.4299C51.7175 27.4299 53.1461 28.8585 55.1461 28.8585C57.1461 28.8585 58.5747 27.4299 58.5747 25.4299C58.289 23.4299 56.8604 22.0013 55.1461 22.0013Z" fill="white"/>
<path d="M39.9973 26.2881C32.283 26.2881 25.9973 32.5738 25.9973 40.2881C25.9973 48.0024 32.283 54.2881 39.9973 54.2881C47.7116 54.2881 53.9973 48.0024 53.9973 40.2881C54.283 32.5738 47.9973 26.2881 39.9973 26.2881ZM39.9973 49.431C35.1402 49.431 30.8545 45.431 30.8545 40.2881C30.8545 35.431 34.8545 31.1452 39.9973 31.1452C44.8544 31.1452 49.1402 35.1452 49.1402 40.2881C49.1402 45.431 45.1402 49.431 39.9973 49.431Z" fill="white"/>
<path d="M51.4265 11.4266H28.5694C19.1408 11.4266 11.4265 19.1409 11.4265 28.5695V51.4267C11.4265 60.8552 19.1408 68.5695 28.5694 68.5695H51.4265C60.8551 68.5695 68.5694 60.8552 68.5694 51.4267V28.5695C68.5694 19.1409 60.8551 11.4266 51.4265 11.4266ZM63.1408 51.4267C63.1408 57.9981 57.7122 63.1409 51.4265 63.1409H28.5694C21.9979 63.1409 16.8551 57.7124 16.8551 51.4267V28.5695C16.8551 21.9981 22.2837 16.8552 28.5694 16.8552H51.4265C57.998 16.8552 63.1408 22.2838 63.1408 28.5695V51.4267Z" fill="white"/>
</svg>
