<svg width="80" height="80" viewBox="0 0 80 80" fill="none" xmlns="http://www.w3.org/2000/svg">
<path d="M74.0811 0H5.90291C5.88157 0 5.85756 0 5.83089 0C2.6327 0 0.0373433 2.57135 0 5.75887V74.2358C0.0373433 77.426 2.6327 80 5.83089 80C5.85756 80 5.88157 80 5.90824 80H74.0731C74.0944 80 74.1211 80 74.1478 80C77.3486 80 79.9493 77.4313 80 74.2411V74.2358V5.7642C79.9493 2.57135 77.3486 0 74.1451 0C74.1184 0 74.0944 0 74.0678 0H74.0811ZM23.7263 68.1728H11.8458V30H23.7263V68.1728ZM17.7887 24.7773C13.9877 24.7773 10.9096 21.6965 10.9096 17.8981C10.9096 14.0998 13.9904 11.0189 17.7887 11.0189C21.5871 11.0189 24.6679 14.0971 24.6679 17.8954C24.6679 17.8981 24.6679 17.9008 24.6679 17.9061C24.6679 21.7018 21.5898 24.7799 17.7941 24.7799C17.7914 24.7799 17.7887 24.7799 17.7861 24.7799L17.7887 24.7773ZM68.1542 68.1728H56.3084V49.6106C56.3084 45.1827 56.2177 39.4879 50.136 39.4879C43.9584 39.4879 43.0168 44.3052 43.0168 49.2851V68.1755H31.171V30.0027H42.55V35.2067H42.7047C44.9133 31.4857 48.909 29.0317 53.4783 29.0317C53.641 29.0317 53.801 29.0344 53.9611 29.0397H53.9371C65.9403 29.0397 68.1595 36.9405 68.1595 47.2233V68.1755L68.1542 68.1728Z" fill="#303641"/>
</svg>
