<svg width="80" height="80" viewBox="0 0 80 80" fill="none" xmlns="http://www.w3.org/2000/svg">
<path fill-rule="evenodd" clip-rule="evenodd" d="M63.66 35.4609C50.768 27.8049 29.5 27.0999 17.188 30.8359C15.212 31.4319 13.124 30.3198 12.524 28.3398C11.924 26.3638 13.04 24.2758 15.016 23.6758C29.148 19.3838 52.636 20.2114 67.48 29.0234C69.256 30.0794 69.84 32.3763 68.784 34.1523C67.736 35.9283 65.432 36.5169 63.66 35.4609ZM63.24 46.8008C62.336 48.2688 60.416 48.7281 58.948 47.8281C48.2 41.2201 31.808 39.308 19.092 43.168C17.44 43.664 15.7 42.7359 15.2 41.0879C14.704 39.4399 15.632 37.6992 17.28 37.1992C31.804 32.7912 49.864 34.9276 62.212 42.5156C63.68 43.4156 64.14 45.3368 63.24 46.8008ZM58.344 57.6914C57.624 58.8674 56.092 59.2395 54.916 58.5195C45.524 52.7795 33.7 51.4841 19.776 54.6641C18.436 54.9721 17.096 54.1311 16.792 52.7871C16.484 51.4471 17.32 50.1127 18.668 49.8047C33.904 46.3207 46.972 47.8197 57.516 54.2637C58.692 54.9837 59.064 56.5154 58.344 57.6914ZM40 0C17.908 0 0 17.908 0 40C0 62.092 17.908 80 40 80C62.092 80 80 62.092 80 40C80 17.912 62.092 0 40 0Z" fill="#303641"/>
</svg>
