<svg width="1175" height="1806" viewBox="0 0 1175 1806" fill="none" xmlns="http://www.w3.org/2000/svg">
<path d="M587.57 902.995C587.57 736.715 719.021 602.039 881.045 602.039C1043.2 602.039 1174.52 736.586 1174.52 902.995C1174.52 1069.28 1043.2 1203.95 881.045 1203.95C719.15 1203.95 587.57 1069.41 587.57 902.995Z" fill="#4A5364"/>
<path d="M0.621582 1505.04C0.621582 1338.76 132.072 1203.96 294.096 1203.96H587.571V1505.04C587.571 1671.2 456.12 1806 294.096 1806C132.072 1806 0.621582 1671.2 0.621582 1505.04Z" fill="#616E84"/>
<path d="M587.57 0V602.042H881.045C1043.2 602.042 1174.52 467.237 1174.52 300.956C1174.52 134.805 1043.2 0 881.045 0H587.57Z" fill="#98A2B3"/>
<path d="M0.621582 300.956C0.621582 467.237 132.072 602.042 294.096 602.042H587.571V0H294.096C132.072 0 0.621582 134.805 0.621582 300.956Z" fill="#616E84"/>
<path d="M0.621582 902.995C0.621582 1069.28 132.072 1203.95 294.096 1203.95H587.571V602.039H294.096C132.072 602.039 0.621582 736.586 0.621582 902.995Z" fill="#303641"/>
</svg>
