<svg width="35" height="40" viewBox="0 0 35 40" fill="none" xmlns="http://www.w3.org/2000/svg">
<path d="M3.14704 36.0014L-1.52588e-05 0H34.5798L31.4286 35.9957L17.2689 40L3.14704 36.0014Z" fill="#303641"/>
<path d="M17.2899 36.9401L28.7325 33.7043L31.4244 2.94434H17.2899V36.9401Z" fill="#616E84"/>
<path d="M17.2899 16.2957H11.5616L11.1667 11.7742H17.2899V7.35852H17.2745H6.43556L6.5392 8.54423L7.60223 20.7114H17.2899V16.2957Z" fill="#F9FAFB"/>
<path d="M17.2899 27.7629L17.2703 27.7686L12.4496 26.4415L12.1414 22.92H9.7983H7.7955L8.40195 29.8515L17.2703 32.3629L17.2899 32.3572V27.7629Z" fill="#F9FAFB"/>
<path d="M17.2745 16.2958V20.7115H22.605L22.1036 26.4386L17.2745 27.7672V32.3615L26.1498 29.8515L26.2143 29.1058L27.2311 17.4815L27.3375 16.2958H26.1708H17.2745Z" fill="#F9FAFB"/>
<path d="M17.2745 7.35852V10.1014V11.7642V11.7742H27.7171H27.7311L27.8179 10.7828L28.0154 8.54423L28.119 7.35852H17.2745Z" fill="#F9FAFB"/>
</svg>
