<svg width="1807" height="1806" viewBox="0 0 1807 1806" fill="none" xmlns="http://www.w3.org/2000/svg">
<path d="M0.417969 653.597C0.417969 424.818 0.417969 310.427 44.9416 223.045C84.106 146.181 146.599 83.688 223.463 44.5236C310.845 0 425.236 0 654.015 0H1152.82C1381.6 0 1495.99 0 1583.37 44.5236C1660.23 83.688 1722.73 146.181 1761.89 223.045C1806.42 310.427 1806.42 424.818 1806.42 653.597V1152.4C1806.42 1381.18 1806.42 1495.57 1761.89 1582.95C1722.73 1659.82 1660.23 1722.31 1583.37 1761.47C1495.99 1806 1381.6 1806 1152.82 1806H654.015C425.236 1806 310.845 1806 223.463 1761.47C146.599 1722.31 84.106 1659.82 44.9416 1582.95C0.417969 1495.57 0.417969 1381.18 0.417969 1152.4V653.597Z" fill="#303641"/>
<path d="M875.591 1134.96H595.732L538.792 1316.38C537.211 1323.12 531.006 1327.89 524.253 1327.56H382.504C374.421 1327.56 371.594 1323 374.024 1313.89L616.327 598.161C618.752 590.705 621.177 582.217 623.596 572.69C626.77 556.107 628.388 539.26 628.447 522.367C627.75 517.375 632.136 512.966 636.922 513.665H829.557C835.201 513.665 838.426 515.737 839.245 519.878L1114.27 1315.14C1116.69 1323.42 1114.27 1327.57 1107 1327.56H949.495C943.974 1328.19 938.698 1324.4 937.382 1318.86L875.591 1134.96ZM639.347 978.395H830.77C799.32 870.925 763.825 764.868 735.058 656.566C704.021 765.055 670.159 873.105 639.347 978.395Z" fill="#F9FAFB"/>
<path d="M1277.81 645.374C1265.45 645.883 1253.13 643.709 1241.64 639.001C1230.16 634.292 1219.78 627.146 1211.17 618.038C1202.59 608.531 1195.92 597.386 1191.56 585.227C1187.19 573.076 1185.21 560.156 1185.73 547.211C1185.29 534.395 1187.49 521.63 1192.18 509.746C1196.89 497.863 1203.97 487.129 1212.99 478.246C1221.92 469.456 1232.46 462.568 1244 457.983C1255.54 453.397 1267.85 451.205 1280.23 451.531C1309.31 451.531 1332.12 460.437 1348.68 478.246C1357.04 487.502 1363.53 498.358 1367.8 510.191C1372.05 522.024 1374 534.608 1373.51 547.211C1374.02 560.201 1371.98 573.172 1367.5 585.337C1363.03 597.502 1356.21 608.621 1347.47 618.038C1338.33 627.281 1327.41 634.479 1315.43 639.188C1303.44 643.89 1290.63 645.999 1277.81 645.374ZM1194.21 1315.13V721.174C1194.21 713.718 1197.43 709.989 1203.9 709.989H1352.92C1359.37 709.989 1362.6 713.718 1362.61 721.174V1315.13C1362.61 1323.42 1359.38 1327.56 1352.92 1327.56H1205.12C1197.85 1327.56 1194.21 1323.42 1194.21 1315.13Z" fill="#F9FAFB"/>
</svg>
