<svg width="1782" height="1806" viewBox="0 0 1782 1806" fill="none" xmlns="http://www.w3.org/2000/svg">
<path d="M1718.44 191.327L1351.71 11.236C1331 1.05057 1307.69 -2.31062 1285.03 1.61834C1262.36 5.5473 1241.45 16.5718 1225.2 33.1635L24.7088 1149.52C10.1433 1163 1.42444 1181.83 0.47023 1201.87C-0.483985 1221.91 6.40459 1241.51 19.6206 1256.37C21.2107 1258.12 22.8008 1259.81 24.518 1261.37L122.529 1352.19C135.336 1364.08 151.822 1371.02 169.122 1371.8C186.422 1372.58 203.445 1367.16 217.233 1356.47L1663.23 238.037C1674.15 229.583 1687.17 224.407 1700.82 223.091C1714.47 221.775 1728.21 224.371 1740.49 230.587C1752.77 236.804 1763.11 246.394 1770.34 258.277C1777.57 270.161 1781.4 283.866 1781.41 297.851V293.504C1781.4 272.154 1775.49 251.238 1764.36 233.162C1753.22 215.087 1737.3 200.586 1718.44 191.327Z" fill="#303641"/>
<path d="M1718.44 1614.67L1351.71 1794.82C1330.99 1804.98 1307.69 1808.33 1285.03 1804.4C1262.37 1800.47 1241.47 1789.46 1225.2 1772.9L24.7083 656.472C10.1428 642.991 1.42396 624.161 0.469741 604.123C-0.484474 584.085 6.4041 564.482 19.6201 549.624C21.2102 547.873 22.8003 546.186 24.5175 544.629L122.529 453.805C135.349 441.865 151.872 434.896 169.215 434.114C186.558 433.331 203.62 438.785 217.423 449.523L1663.23 1567.96C1674.15 1576.41 1687.17 1581.59 1700.82 1582.9C1714.47 1584.22 1728.21 1581.62 1740.49 1575.41C1752.77 1569.19 1763.11 1559.6 1770.34 1547.72C1777.57 1535.83 1781.4 1522.13 1781.41 1508.14V1512.81C1781.34 1534.11 1775.4 1554.95 1764.26 1572.96C1753.13 1590.97 1737.25 1605.43 1718.44 1614.67Z" fill="#4A5364"/>
<path d="M1351.71 1794.82C1330.99 1804.98 1307.69 1808.33 1285.03 1804.4C1262.37 1800.47 1241.47 1789.46 1225.2 1772.9C1234.34 1782.09 1245.93 1788.33 1258.52 1790.84C1271.12 1793.34 1284.16 1792 1296.01 1786.98C1307.86 1781.95 1317.99 1773.48 1325.14 1762.6C1332.29 1751.73 1336.13 1738.95 1336.19 1725.86V80.1283C1336.2 66.9775 1332.38 54.1194 1325.22 43.1827C1318.06 32.246 1307.88 23.7229 1295.97 18.6931C1284.06 13.6632 1270.95 12.3529 1258.31 14.9282C1245.66 17.5034 1234.05 23.8484 1224.95 33.1592C1241.2 16.5735 1262.1 5.54833 1284.77 1.60845C1307.43 -2.33143 1330.73 1.00867 1351.45 11.1668L1718.12 190.999C1737.04 200.211 1753.02 214.692 1764.22 232.771C1775.42 250.851 1781.37 271.791 1781.4 293.176V1512.81C1781.41 1534.18 1775.5 1555.12 1764.34 1573.21C1753.19 1591.3 1737.26 1605.8 1718.37 1615.06L1351.71 1794.82Z" fill="#616E84"/>
</svg>
