<svg width="89" height="80" viewBox="0 0 89 80" fill="none" xmlns="http://www.w3.org/2000/svg">
<path d="M6.36455 9.0908C76.6632 9.25806 72.9604 8.70389 75.1135 9.51494C78.7539 9.53741 80.9709 13.5077 81.7027 15.5216C82.8884 18.7851 82.6802 22.3642 82.5262 25.833C82.0757 35.9817 82.2231 46.1571 82.9674 56.2885C83.2159 59.6709 82.6747 63.3692 80.3593 65.8473C78.062 68.3059 74.9788 68.5418 71.6145 68.4797C63.5894 68.3317 55.5643 68.1835 47.5391 68.0352C46.5463 68.8901 44.9985 70.5553 44.688 70.8372C38.5693 76.3946 34.839 80.6634 30.0228 79.9145C28.4691 80.0224 27.2602 78.973 26.9837 77.6155C26.1706 73.5836 25.3497 69.3422 24.5389 65.0965H6.36455C2.8551 65.0965 -7.4789e-06 62.2414 -7.4789e-06 58.7319V15.4554C-8.69709e-06 11.9459 2.8551 9.0908 6.36455 9.0908ZM2.03031 58.7319C2.03031 61.1218 3.97469 63.0662 6.36455 63.0662C26.3768 63.0839 25.6973 62.8985 26.1488 63.4426C26.5062 63.8752 26.2314 63.6397 28.9744 77.2123C29.1136 77.9007 29.9779 78.1528 30.4601 77.6195C31.7056 76.2414 33.2651 74.4971 33.7752 74.0281L33.7554 74.0096C44.4706 62.4374 42.8133 63.7533 43.9044 63.3662H72.8854C75.2752 63.3662 77.2196 61.4218 77.2196 59.0307V15.4554C77.2196 13.0655 75.2752 11.1211 72.8854 11.1211H6.36455C3.97469 11.1211 2.03031 13.0655 2.03031 15.4554V58.7319Z" fill="#1E2229"/>
<path d="M7.01879 25.2806H67.5293C68.0897 25.2806 68.5444 25.7353 68.5444 26.2958C68.5444 26.8563 68.0897 27.311 67.5293 27.311H7.01879C6.45834 27.311 6.00363 26.8563 6.00363 26.2958C6.00363 25.7353 6.45834 25.2806 7.01879 25.2806Z" fill="#1E2229"/>
<path d="M26.7046 40.0745H60.7905C61.351 40.0745 61.8057 40.5292 61.8057 41.0896C61.8057 41.6501 61.351 42.1048 60.7905 42.1048H26.7046C26.1442 42.1048 25.6895 41.6501 25.6895 41.0896C25.6895 40.5292 26.1442 40.0745 26.7046 40.0745Z" fill="#1E2229"/>
<path d="M38.379 50.3291H46.8757C47.4362 50.3291 47.8909 50.7838 47.8909 51.3443C47.8909 51.9047 47.4362 52.3594 46.8757 52.3594H38.379C37.8186 52.3594 37.3639 51.9047 37.3639 51.3443C37.3639 50.7838 37.8186 50.3291 38.379 50.3291Z" fill="#1E2229"/>
<path d="M87.8999 10.8476C84.5105 11.7398 83.6865 12.6109 83.0422 12.6109C81.9714 12.6109 81.634 11.1631 82.5875 10.6876C84.1142 9.92627 85.7268 9.31955 87.3844 8.88335C87.9303 8.74059 88.4815 9.06576 88.6243 9.60771C88.767 10.1497 88.4432 10.7048 87.8999 10.8476Z" fill="#1E2229"/>
<path d="M79.5791 9.88527C79.1032 9.58918 78.9592 8.96263 79.2566 8.48678C80.4198 6.62433 81.8235 4.92182 83.4322 3.42551C83.8433 3.04218 84.4857 3.06597 84.8664 3.47706C85.2484 3.88683 85.2259 4.52923 84.8148 4.91124C83.3384 6.28594 82.0469 7.85098 80.9776 9.56274C80.6867 10.0302 80.0642 10.187 79.5791 9.88527Z" fill="#1E2229"/>
<path d="M76.4687 7.49146C76.0352 7.49146 75.6333 7.21255 75.4985 6.77635C74.8997 4.8412 74.8125 2.77387 75.2434 0.796416C75.3624 0.24918 75.9017 -0.0918504 76.4515 0.0218265C76.9988 0.140791 77.3464 0.681417 77.2261 1.22997C76.8706 2.86507 76.9433 4.57551 77.4389 6.17624C77.6398 6.82696 77.1534 7.49146 76.4687 7.49146Z" fill="#1E2229"/>
</svg>
