<svg width="176" height="118" viewBox="0 0 176 118" fill="none" xmlns="http://www.w3.org/2000/svg">
<g clip-path="url(#clip0_623_18)">
<path d="M105.086 20.3731C89.6044 15.4942 73.1414 16.7619 58.7336 20.6006C44.5354 24.391 31.5713 30.4875 20.8145 38.4345C15.3558 42.4706 10.3013 47.1102 7.53494 52.7758C4.96781 58.0172 4.452 64.1582 7.27965 69.8696C10.1073 75.5809 15.6208 79.7847 21.6563 83.1384C28.7599 87.0906 36.7023 89.9196 44.7936 91.8735C60.7706 95.7278 77.5797 96.5891 93.5609 95.8654C109.542 95.1417 124.351 92.5946 138.513 88.2906C151.536 84.3391 165.038 78.2092 168.728 66.7359C170.418 61.4809 169.773 55.6584 165.917 50.5662C162.061 45.474 156.084 41.8991 149.9 38.9956C134.62 31.8248 117.239 28.1099 100.398 26.4208C83.5566 24.7318 65.3342 25.1067 48.0572 25.994C43.8727 26.2058 39.6985 26.4565 35.5258 26.7002C34.9988 26.7285 34.0001 27.0027 34.3549 27.5732C34.7098 28.1437 36.0719 28.1488 36.6471 28.1166C53.0365 27.1767 69.4875 26.258 86.1418 26.9234C102.796 27.5888 119.226 29.845 134.944 35.1065C147.625 39.3498 163.412 46.202 165.65 58.0891C166.674 63.5278 164.824 68.864 161.351 73.1624C157.68 77.7094 152.077 81.0391 146.105 83.5679C140.132 86.0967 133.202 88.125 126.402 89.7429C119.601 91.3608 112.309 92.6411 105.017 93.4528C90.3361 95.0908 75.0097 95.0896 59.8764 93.0876C51.8407 92.0253 43.8 90.3099 36.179 87.5677C29.2586 85.0778 22.4175 81.7706 17.0841 77.2702C11.9001 72.9059 8.95381 67.5123 8.94944 61.8334C8.94507 56.1545 11.8248 50.6169 15.9416 46.148C20.1481 41.5746 25.5889 37.703 31.2261 34.2638C36.8633 30.8246 42.8829 27.918 49.3078 25.4833C62.0565 20.6425 76.8595 17.2368 91.9029 19.0062C95.5747 19.4341 99.2392 20.19 102.767 21.3035C103.537 21.5421 104.505 21.6567 105.2 21.3437C105.717 21.108 105.82 20.6037 105.086 20.3731V20.3731Z" fill="#EDCAA0"/>
</g>
<defs>
<clipPath id="clip0_623_18">
<rect width="161.034" height="83.2119" fill="white" transform="translate(18.6006 0.734497) rotate(12.6409)"/>
</clipPath>
</defs>
</svg>
