<svg width="75" height="80" viewBox="0 0 75 80" fill="none" xmlns="http://www.w3.org/2000/svg">
<path d="M50.8354 33.247L42.5977 41.4848V5.19482C42.5977 2.32583 40.272 0 37.4028 0C34.5336 0 32.208 2.32583 32.208 5.19482V41.4848L23.9701 33.247C21.9413 31.2181 18.6522 31.2181 16.6235 33.2466C14.5947 35.2755 14.5947 38.5649 16.6235 40.5933L33.7295 57.6997C34.7036 58.6738 36.0252 59.2211 37.4028 59.2211C38.7805 59.2211 40.1021 58.6738 41.0762 57.6997L58.1821 40.5937C60.2106 38.5649 60.2106 35.2755 58.1821 33.247C56.1532 31.2183 52.8643 31.2183 50.8354 33.247Z" fill="#1E2229"/>
<path d="M0 74.8052C0 71.9364 2.32583 69.6104 5.19482 69.6104H69.6107C72.4795 69.6104 74.8055 71.9364 74.8055 74.8052C74.8055 77.6744 72.4795 80 69.6107 80H5.19482C2.32583 80 0 77.6744 0 74.8052Z" fill="#1E2229"/>
</svg>
