<svg width="102" height="80" viewBox="0 0 102 80" fill="none" xmlns="http://www.w3.org/2000/svg">
<path d="M100.61 12.3394C66.9165 16.8945 33.3691 25.4829 0.92598 33.0149C0.0320585 33.2234 -0.30204 34.3338 0.375663 34.9975C0.638267 35.902 0.902978 36.806 1.16491 37.7107C11.7271 42.0613 23.329 47.3658 29.2701 49.4765C33.1556 59.2183 38.1878 71.3082 42.0557 78.7725C42.0117 79.8272 43.2224 80.3664 43.9845 79.7207L60.7261 65.5511C73.4203 72.9514 73.3884 73.072 74.8387 73.3136C75.6684 73.452 76.5823 73.3226 77.2718 72.8708C77.3403 72.8651 77.408 72.8831 77.4758 72.8647C77.8308 72.7711 78.1221 72.5166 78.2632 72.1762C85.7771 53.9973 96.735 32.6054 101.904 13.8192C102.131 12.9927 101.425 12.2192 100.61 12.3394ZM43.033 75.4761C39.0531 67.3774 34.1421 55.4006 30.5248 46.2536C45.8347 42.5992 59.0663 37.46 73.4934 31.8786C66.2353 39.6284 60.8386 48.5729 52.9559 55.6302C52.606 55.9436 52.4957 56.4177 52.6199 56.8397C48.5556 64.1419 46.2462 68.2018 43.033 75.4761ZM47.8243 73.386C49.4933 70.8654 51.1039 68.3063 52.5823 65.6693C53.0625 64.8129 53.4669 63.9105 54.1371 63.1836C54.307 62.9994 54.5231 62.5524 54.7333 62.0577C56.0115 62.8028 57.2897 63.5478 58.568 64.2931L47.8243 73.386ZM76.6738 69.8652C69.2948 64.3753 63.0756 61.9759 55.6044 56.341C64.4419 48.0141 70.4324 37.4231 79.1672 29.603C80.1305 28.7424 79.1928 27.1657 77.9588 27.6264C60.9121 34.2296 45.9314 40.2807 28.834 44.2474C28.6023 44.3013 28.4189 44.4341 28.2659 44.5942C20.334 41.4187 11.5631 38.4246 4.40461 34.6235C35.5334 27.3482 67.2988 19.358 99.1442 14.9187C93.9967 32.5878 83.9015 52.6126 76.6738 69.8652Z" fill="#1E2229"/>
<path d="M56.8325 4.60011C56.2444 4.87767 55.9929 5.57999 56.2705 6.1673C57.2803 8.30339 58.0999 10.5453 58.7056 12.8317C58.8459 13.3592 59.3221 13.7073 59.8434 13.7073C60.6178 13.7073 61.1804 12.9742 60.9828 12.2275C60.3395 9.80464 59.4708 7.42626 58.4005 5.16136C58.1214 4.57251 57.419 4.32409 56.8325 4.60011Z" fill="#1E2229"/>
<path d="M65.6475 12.1217C66.2141 12.1217 66.714 11.7107 66.8083 11.1341C67.3489 7.81883 67.4899 4.43757 67.227 1.08392C67.1756 0.435268 66.5936 -0.0278341 65.9611 0.00130146C65.3124 0.0519053 64.8279 0.619282 64.8792 1.26793C65.1269 4.4345 64.9943 7.62561 64.4836 10.7538C64.3666 11.4696 64.9174 12.1217 65.6475 12.1217Z" fill="#1E2229"/>
<path d="M74.1712 1.95181L69.9458 9.60832C69.6314 10.1772 69.8384 10.8934 70.4081 11.2077C70.9794 11.5237 71.6956 11.3135 72.0083 10.7461L76.2337 3.08963C76.548 2.52072 76.341 1.80307 75.7714 1.49024C75.204 1.17742 74.4863 1.38137 74.1712 1.95181Z" fill="#1E2229"/>
</svg>
