<svg width="159" height="11" viewBox="0 0 159 11" fill="none" xmlns="http://www.w3.org/2000/svg">
<g clip-path="url(#clip0_630_734)">
<path d="M34.6052 2.23989C49.7085 1.91772 64.8201 1.7106 79.9316 1.61855C95.0431 1.5265 110.015 1.55719 125.052 1.70293C133.595 1.78731 142.145 1.90237 150.688 2.05579L151.847 0.483267C132.345 0.797772 112.851 1.18899 93.3577 1.65691C73.864 2.12483 54.3702 2.66946 34.8765 3.29847C23.9334 3.65133 12.9985 4.01953 2.05538 4.41841C1.41409 4.44143 0.452148 4.59484 0.0903915 5.17783C-0.246699 5.72246 0.378152 6.00628 0.896121 5.99094C21.212 5.50767 41.5443 5.46165 61.8685 5.86053C82.1926 6.25942 102.5 7.11088 122.783 8.39959C134.179 9.12065 145.566 9.98745 156.936 10.9923C157.553 11.046 158.572 10.7622 158.901 10.2329C159.263 9.6576 158.589 9.45816 158.096 9.41981C137.862 7.6325 117.579 6.28243 97.2794 5.37727C76.98 4.47211 56.6477 4.01953 36.3235 4.01186C24.9036 4.01186 13.4836 4.14226 2.06361 4.41841L0.904343 5.99094C20.3898 5.27755 39.8836 4.64854 59.3773 4.08857C78.871 3.53627 98.3647 3.053 117.858 2.65412C128.802 2.43166 139.753 2.22455 150.696 2.04812C151.337 2.04045 152.307 1.86402 152.661 1.28871C153.015 0.713393 152.365 0.483267 151.855 0.475596C136.736 0.214787 121.632 0.0536995 106.521 0.0153452C91.4091 -0.0230091 76.4374 0.0460286 61.3998 0.2378C52.8574 0.345192 44.3068 0.490938 35.7645 0.675038C35.1232 0.69038 34.153 0.859139 33.7995 1.43445C33.4624 1.97908 34.0872 2.2629 34.6052 2.24756V2.23989Z" fill="#EDCAA0"/>
</g>
<defs>
<clipPath id="clip0_630_734">
<rect width="159" height="11" fill="white"/>
</clipPath>
</defs>
</svg>
