<svg width="120" height="11" viewBox="0 0 120 11" fill="none" xmlns="http://www.w3.org/2000/svg">
<g clip-path="url(#clip0_623_6)">
<path d="M30.0315 1.42763L64.5381 1.40789L98.8882 1.38816C105.391 1.38816 111.895 1.375 118.404 1.38158L119.299 0C103.927 0.519737 88.5544 1.15132 73.1882 1.88816C57.8283 2.625 42.4747 3.48026 27.1273 4.43421C18.5147 4.97368 9.90842 5.53947 1.30211 6.14474C0.895271 6.17105 0.18173 6.43421 0.0315113 6.88158C-0.118708 7.32895 0.331949 7.5 0.694979 7.50658L46.5681 8.64474C61.8592 9.02632 77.1502 9.40789 92.4413 9.78289C101.073 10 109.71 10.2105 118.342 10.4211L119.243 9.03947C113.822 9.23684 108.402 9.43421 102.975 9.63158C102.481 9.65132 101.736 9.78947 101.467 10.2895C101.21 10.7566 101.686 11.0132 102.087 11C107.507 10.8092 112.921 10.6184 118.342 10.4276C118.842 10.4079 119.593 10.2697 119.875 9.76316C120.157 9.25658 119.643 9.05263 119.243 9.04605C103.952 8.65789 88.6608 8.28289 73.3697 7.90789C58.0787 7.53289 42.7876 7.15132 27.4966 6.77632L1.59629 6.13158L0.989158 7.49342C16.2364 6.42105 31.4961 5.44737 46.7559 4.59211C62.0094 3.73684 77.2692 2.99342 92.5352 2.35526C101.154 1.99342 109.773 1.67105 118.392 1.38158C118.892 1.36184 119.643 1.22368 119.925 0.717105C120.207 0.210526 119.7 0 119.299 0C107.795 0.0197368 96.2907 0.0197368 84.7926 0.0263158L50.4425 0.0460526L30.9266 0.0592105C30.4384 0.0592105 29.681 0.230263 29.4119 0.717105C29.1427 1.20395 29.6372 1.42763 30.0315 1.42763V1.42763Z" fill="#EDCAA0"/>
</g>
<defs>
<clipPath id="clip0_623_6">
<rect width="120" height="11" fill="white"/>
</clipPath>
</defs>
</svg>
