<svg width="127" height="10" viewBox="0 0 127 10" fill="none" xmlns="http://www.w3.org/2000/svg">
<g clip-path="url(#clip0_623_6)">
<path d="M31.7832 1.29785L68.3027 1.2799L104.657 1.26196C111.539 1.26196 118.422 1.25 125.311 1.25598L126.258 0C109.989 0.472488 93.7199 1.04665 77.4574 1.71651C61.2015 2.38636 44.9522 3.16388 28.7096 4.0311C19.5946 4.52153 10.4863 5.03589 1.37796 5.58612C0.947388 5.61005 0.192224 5.84928 0.0332426 6.25598C-0.125739 6.66268 0.351206 6.81818 0.735413 6.82416L49.2845 7.85885C65.4675 8.20574 81.6506 8.55263 97.8336 8.89354C106.968 9.09091 116.11 9.2823 125.245 9.47368L126.199 8.2177C120.462 8.39713 114.725 8.57656 108.982 8.75598C108.459 8.77392 107.671 8.89952 107.386 9.35407C107.114 9.77871 107.618 10.012 108.042 10C113.778 9.82655 119.508 9.65311 125.245 9.47966C125.775 9.46172 126.57 9.33612 126.868 8.8756C127.166 8.41507 126.623 8.22966 126.199 8.22368C110.016 7.87081 93.8326 7.5299 77.6495 7.189C61.4665 6.84809 45.2835 6.5012 29.1004 6.16029L1.6893 5.57416L1.04675 6.8122C17.1834 5.83732 33.3333 4.95215 49.4832 4.17464C65.6265 3.39713 81.7764 2.72129 97.933 2.14115C107.055 1.8122 116.176 1.51914 125.298 1.25598C125.828 1.23804 126.623 1.11244 126.921 0.651914C127.219 0.191388 126.682 0 126.258 0C114.083 0.0179426 101.908 0.0179426 89.7388 0.0239234L53.3849 0.041866L32.7305 0.0538278C32.2138 0.0538278 31.4123 0.20933 31.1274 0.651914C30.8426 1.0945 31.3659 1.29785 31.7832 1.29785Z" fill="#EDCAA0"/>
</g>
<defs>
<clipPath id="clip0_623_6">
<rect width="127" height="10" fill="white"/>
</clipPath>
</defs>
</svg>
