<svg width="86" height="81" viewBox="0 0 86 81" fill="none" xmlns="http://www.w3.org/2000/svg">
<path d="M85.5984 12.3774C85.4111 6.55068 80.9928 1.87522 75.5415 1.73114C54.525 1.18128 33.8205 0.0385089 13.2736 1.9804C12.3175 2.07081 11.4052 2.30152 10.5474 2.64588C6.83833 3.04913 3.62251 4.95605 1.83706 8.66778C-0.0196122 12.5276 -0.0249252 16.9838 0.00668273 21.2669C0.113574 35.7817 0.220464 50.2965 0.327355 64.8111C0.358513 69.0412 0.63443 73.8274 3.84791 76.5785C6.29469 78.6731 9.76301 78.9526 12.979 79.1304C31.0672 80.1292 49.1739 80.9703 67.2894 80.888C70.3348 80.8741 73.3685 80.4502 76.3004 79.6264C79.3407 78.7721 81.7897 77.8781 83.3639 75.1467C85.0121 72.2867 85.233 68.4073 84.8901 67.8813C85.0696 67.1541 85.1866 66.3991 85.2231 65.62C86.0573 47.8028 86.1798 30.3876 85.5984 12.3774ZM83.0129 65.5162C82.7938 70.1859 79.2444 73.8643 74.932 73.8903C55.4918 74.007 34.999 73.8759 14.0235 73.4926C9.58291 73.4119 6.00608 69.4381 6.0493 64.633C6.20302 47.6041 5.94226 29.8489 6.1127 12.8615C6.15808 8.30704 9.32572 4.57676 13.4818 4.18485C33.7047 2.27346 53.9711 3.37279 75.4831 3.94424C79.7645 4.05662 83.2369 7.79267 83.3867 12.4494C83.966 30.3991 83.8435 47.7581 83.0129 65.5162Z" fill="#1E2229"/>
<path d="M15.8231 39.9546C19.446 34.0861 23.6979 28.6831 28.4728 23.8837C28.9036 23.45 28.9021 22.7498 28.4685 22.3175C28.0348 21.8882 27.3345 21.8896 26.9037 22.3219C21.7744 27.48 17.2344 33.3139 13.4097 39.6621C13.1187 40.1448 13.2383 40.7716 13.6878 41.113C16.2654 43.0754 18.8431 44.9571 21.4207 46.8388C29.7828 52.9464 29.2095 52.775 29.8005 52.775C30.8531 52.775 31.3156 51.4311 30.4712 50.7881C25.6079 47.0853 20.67 43.6149 15.8231 39.9546Z" fill="#1E2229"/>
<path d="M63.5235 24.8895C63.1324 24.4197 62.4357 24.3549 61.9653 24.7468C61.4949 25.1373 61.4315 25.8346 61.8219 26.3043C66.1516 31.5071 69.9078 37.2661 72.9969 43.4342C67.8389 46.6517 62.5979 49.6822 57.4469 52.9264C56.9296 53.252 56.774 53.9349 57.0996 54.4522C57.4269 54.9722 58.1116 55.1231 58.6255 54.7994C64.0504 51.3846 69.5671 48.2084 75.0213 44.7771C75.4996 44.476 75.674 43.8636 75.4269 43.3564C72.1793 36.6912 68.1745 30.4784 63.5235 24.8895Z" fill="#1E2229"/>
<path d="M57.2798 18.8826C56.7489 18.5757 56.0724 18.763 55.7706 19.2961L33.7181 57.9634C33.4148 58.4936 33.6 59.1694 34.1309 59.4719C34.6517 59.7714 35.3342 59.5968 35.6402 59.0584L57.6926 20.3911C57.9959 19.8609 57.8108 19.1852 57.2798 18.8826Z" fill="#1E2229"/>
</svg>
