<svg width="86" height="80" viewBox="0 0 86 80" fill="none" xmlns="http://www.w3.org/2000/svg">
<path d="M74.2712 54.6314C74.5068 54.021 74.644 53.3676 74.6575 52.697C75.8936 35.3786 76.1242 20.2897 75.3614 6.63198C75.4053 3.37363 72.7678 0.83017 69.6859 0.83017C69.6846 0.83017 69.6846 0.83017 69.6834 0.83017C50.5893 0.0845576 26.374 -0.587477 8.51604 0.828946C7.49519 0.828946 6.54961 1.11982 5.71937 1.58912C3.79337 1.82857 2.25431 3.70876 1.51264 5.37828C0.536555 7.57565 0.46742 10.0528 0.413921 12.4565C0.160988 23.828 0.284389 35.1639 0.0313795 46.5354C-0.263124 59.7753 1.29901 60.5632 14.0823 61.1485C30.3535 61.8935 46.6518 61.2526 62.9273 60.5909C63.0301 64.982 63.1585 69.3735 63.3268 73.7448C63.339 74.0612 63.7214 74.4458 63.9595 74.6513C64.3191 75.2161 65.0732 75.2167 65.4636 74.7625C66.6573 73.3722 67.5985 72.4021 69.8025 69.9944C71.3682 72.8253 73.1407 75.8095 74.7223 78.6522C75.1758 79.4673 75.9469 79.8192 76.8784 79.866C77.111 79.9545 77.3202 80.0302 77.7638 79.988C79.6106 79.8163 80.8958 79.0461 81.926 77.496C82.3552 76.862 82.3858 76.0281 82.002 75.3696C80.2054 72.3013 78.4321 69.2501 76.5522 65.7857C79.2117 65.4076 81.1774 65.2797 84.7895 64.9003C85.6089 64.8143 85.9308 63.786 85.3045 63.2484C81.8054 60.2434 78.0493 57.3385 74.2712 54.6314ZM65.0748 48.4661C64.4367 48.0666 63.6274 48.5377 63.6327 49.2706L63.6348 49.508L62.91 50.7325C62.6723 51.1341 62.7531 50.9444 62.8542 56.5847C57.0686 56.6505 35.3982 57.3643 8.51604 56.4226C6.40429 56.4226 4.68618 54.6996 4.68373 52.5069C3.89182 42.3388 3.72918 30.8044 4.19197 17.4679H73.866C74.1544 34.0177 72.8959 52.5791 72.6597 53.5199C70.3913 51.93 67.5189 50.0005 65.0748 48.4661ZM8.59085 2.71015C26.7321 1.2751 51.396 2.00239 69.6466 2.7126C71.718 2.7126 73.5071 4.36302 73.4789 6.67123C73.6406 9.57252 73.7477 12.5509 73.8196 15.5843H4.26064C4.3737 12.6562 4.51411 9.64848 4.68618 6.54369C4.68618 4.43071 6.40428 2.7126 8.59085 2.71015ZM74.9407 64.124C74.2986 64.2262 73.9555 64.9297 74.2589 65.4975C76.3915 69.488 78.3696 72.8948 80.3759 76.3212L81.1889 75.8454L80.3612 76.4475C79.5309 77.6972 78.6848 78.0111 77.4756 78.0626C77.3822 77.8952 71.6259 67.2985 71.5143 67.0905C71.1895 66.5483 70.4152 66.4667 69.9912 66.9618C68.6976 68.4684 67.17 70.0655 65.6721 71.6967C65.659 70.3683 65.5332 51.1629 65.5323 50.9899C71.0656 54.5572 77.2448 58.9691 82.3871 63.2496C79.5735 63.5202 77.6563 63.6899 74.9407 64.124Z" fill="#1E2229"/>
<path d="M9.77665 12.1934C11.3381 11.901 12.0297 10.2633 11.1526 8.94364C10.7406 8.32311 10.082 7.95276 9.38913 7.95276C9.26527 8.01285 9.12179 7.98219 9.00283 8.03492C8.47889 7.99171 7.56636 8.57663 7.3252 9.65369C6.98143 11.2006 8.20263 12.4736 9.77665 12.1934Z" fill="#1E2229"/>
<path d="M16.9127 12.1027C18.678 12.1027 19.7143 10.3047 18.7179 8.81002C18.006 7.74219 16.8263 7.78856 16.9519 7.82282C16.817 7.82282 16.6883 7.85225 16.5718 7.90376C16.443 7.89272 16.313 7.91602 16.1867 7.96507C14.1161 8.75332 14.4894 12.1027 16.9127 12.1027Z" fill="#1E2229"/>
<path d="M25.3807 12.2265C26.9427 11.9366 27.6315 10.2965 26.7542 8.97671C26.1558 8.07284 25.1225 7.84058 24.6081 8.06799C24.4831 8.05941 24.3494 8.08026 24.2231 8.12808C21.9628 8.99281 22.6753 12.7309 25.3807 12.2265Z" fill="#1E2229"/>
<path d="M37.7349 9.74686H37.7459L63.7063 9.44518C64.2263 9.43905 64.6432 9.01228 64.6371 8.49232C64.631 7.97235 64.2238 7.60077 63.6842 7.56152L37.7238 7.8632C37.2039 7.86933 36.7869 8.2961 36.793 8.81607C36.7992 9.33236 37.2198 9.74686 37.7349 9.74686Z" fill="#1E2229"/>
<path d="M26.7775 23.7836H11.8419C9.60747 23.7836 7.79004 25.4011 7.79004 27.3902V39.2318C7.79004 41.1939 9.58295 42.8115 11.7867 42.8384C30.9303 43.0688 25.3264 43.0138 26.3813 43.0138C28.5544 43.0138 30.3657 41.4551 30.432 39.5138L30.8281 27.4969C30.8575 26.5919 30.5092 25.7175 29.8482 25.0344C29.0793 24.2398 27.9596 23.7836 26.7775 23.7836ZM28.5483 39.4513C28.5176 40.3919 27.501 41.1191 26.3482 41.1301L11.8088 40.9548C10.6315 40.9401 9.6737 40.1675 9.6737 39.2318V27.3902C9.6737 26.4398 10.6462 25.6672 11.8419 25.6672H26.7775C27.4519 25.6672 28.0786 25.9137 28.4956 26.3454C28.7089 26.5661 28.9616 26.9353 28.9444 27.4356L28.5483 39.4513Z" fill="#1E2229"/>
<path d="M62.5853 26.8997H40.8754C40.3555 26.8997 39.9336 27.3215 39.9336 27.8415C39.9336 28.3615 40.3555 28.7833 40.8754 28.7833H62.5853C63.1053 28.7833 63.5271 28.3615 63.5271 27.8415C63.5271 27.3215 63.1053 26.8997 62.5853 26.8997Z" fill="#1E2229"/>
<path d="M62.1992 37.5591H35.9555C35.4355 37.5591 35.0137 37.9809 35.0137 38.5009C35.0137 39.0209 35.4355 39.4427 35.9555 39.4427H62.1992C62.7191 39.4427 63.141 39.0209 63.141 38.5009C63.141 37.9809 62.7191 37.5591 62.1992 37.5591Z" fill="#1E2229"/>
<path d="M54.9834 47.0718H41.8591C41.3391 47.0718 40.9172 47.4936 40.9172 48.0136C40.9172 48.5336 41.3391 48.9554 41.8591 48.9554H54.9834C55.5033 48.9554 55.9252 48.5336 55.9252 48.0136C55.9252 47.4936 55.5033 47.0718 54.9834 47.0718Z" fill="#1E2229"/>
</svg>
