<svg width="87" height="81" viewBox="0 0 87 81" fill="none" xmlns="http://www.w3.org/2000/svg">
<path d="M34.7372 6.15888C33.7779 9.72052 35.1497 13.2774 38.3212 15.1607C41.3784 16.9763 45.5758 16.6711 48.2871 14.3705C50.9984 12.07 51.9741 7.91798 50.4991 4.68268C47.391 -2.1347 36.7564 -1.33833 34.7372 6.15888Z" fill="#1E2229"/>
<path d="M7.90137 21.222C7.18915 25.7166 10.5643 29.8425 15.4541 29.8425C17.7855 29.8425 19.681 28.9511 21.0234 27.5951C23.9099 24.6794 24.2389 19.6156 20.8447 16.6471C16.545 12.8031 8.89885 14.9299 7.90137 21.222ZM19.4475 18.0454C20.9743 20.6323 20.1644 23.7124 18.2615 25.33C16.1225 27.15 12.6902 27.1314 10.6382 25.3512C8.54879 22.24 10.1303 18.9196 12.7875 17.4395C14.7681 16.3363 17.3463 16.2555 19.4475 18.0454Z" fill="#1E2229"/>
<path d="M77.712 16.5577C73.602 13.035 66.5895 14.7602 65.0673 20.4074C64.3874 22.9336 64.9854 25.2927 66.3771 27.0203C70.603 32.2663 80.1006 29.9136 80.2715 22.2872C80.329 19.7176 78.8715 17.2938 77.712 16.5577ZM70.4734 17.0846C72.4542 16.3512 74.8066 16.6506 76.4336 18.0364C77.9789 20.6237 77.1634 23.7105 75.2471 25.3299C73.1643 27.1006 69.7106 27.1982 67.5581 25.2798C65.8617 22.5628 66.8806 18.4149 70.4734 17.0846Z" fill="#1E2229"/>
<path d="M66.8252 32.8081C64.2507 30.8254 61.2367 29.5008 58.0361 28.9466C50.4873 11.1192 26.4485 15.8767 26.6396 35.1668C31.1085 35.1549 35.5872 35.0794 40.0581 34.9408C36.7594 38.4258 34.816 42.9284 34.5931 47.7574C34.4676 50.5856 34.9531 53.3503 35.9466 55.9107C34.7996 55.9947 34 56.586 33.4385 57.7597C33.0156 58.6427 32.92 59.6714 33.0832 60.6953C28.1191 64.6364 22.5595 69.1238 17.5781 73.0791C16.3254 74.0727 15.654 76.7486 16.7753 78.0783C17.5354 78.977 19.2341 79.6796 20.59 79.4971C21.4856 79.6864 22.468 79.9224 23.1921 80.0191C29.5325 75.777 35.1345 70.978 41.5656 65.9774C56.4414 78.1344 77.2567 65.6814 75.5288 48.1919C78.6159 47.8152 81.2318 47.9794 84.5675 47.8718C84.7322 47.35 85.2066 46.5809 85.5234 45.9377C86.0442 45.7575 86.2518 45.286 86.1728 44.853C84.4344 35.2253 74.8255 29.5987 66.8252 32.8081ZM84.0781 44.0649C83.9469 44.0669 74.1138 44.2199 74.7386 44.2102C73.5553 40.2897 71.4395 37.1229 68.537 34.3031C75.8549 32.1343 83.4886 38.8547 84.0781 44.0649ZM55.7338 28.6704C51.718 28.4449 47.6631 29.4087 44.0792 31.6378L29.7791 31.7444C32.2765 17.3037 49.3774 15.5343 55.7338 28.6704ZM55.4272 30.614C65.267 31.0217 73.1049 39.4431 72.6664 49.483C72.2032 59.5529 63.5785 67.2485 53.7974 66.7146C43.9315 66.2652 36.1048 57.9384 36.5525 47.8456C37.0074 38.0154 45.2864 30.1992 55.4272 30.614ZM18.7972 74.6157C23.5261 70.8623 28.5247 66.828 33.7569 62.666C34.3277 63.7406 34.9754 64.562 35.7455 65.1854C30.7558 69.159 25.2537 73.7467 20.5343 77.4921C20.2361 77.7271 18.7851 77.4167 18.2742 76.8126C18.0005 76.4876 18.2653 75.0391 18.7972 74.6157Z" fill="#1E2229"/>
<path d="M54.1563 63.5788C62.5055 63.9448 69.4751 57.5061 69.8488 49.2467C70.2236 40.9687 63.7939 33.9297 55.516 33.5542C47.2412 33.2106 40.1991 39.6097 39.8242 47.8864C39.4493 56.1643 45.879 63.2033 54.1563 63.5788ZM55.4272 35.5135C62.6246 35.8405 68.2145 41.9612 67.8894 49.1572C67.5619 56.3689 61.4615 61.9455 54.2457 61.6195C47.0484 61.2925 41.4584 55.1719 41.7835 47.9758C42.1092 40.7814 48.2266 35.1904 55.4272 35.5135Z" fill="#1E2229"/>
<path d="M0.679467 48.403C9.53416 48.3941 18.3886 48.1492 27.2293 47.6686C27.8088 47.637 27.8209 47.6336 28.2726 47.2806C28.8368 46.84 29.195 46.0851 29.5654 45.3727C29.7605 45.342 30.332 45.4749 30.7179 44.9959C31.0831 44.5417 30.8929 44.2419 30.7626 43.1886C30.1941 38.6314 24.0128 31.1415 15.8211 31.4356C8.12867 30.8743 0.556043 38.173 0.679467 48.403ZM28.8154 43.43L4.71801 44.0916C5.76872 38.2904 10.3155 33.3639 16.237 33.3639C22.4937 33.3639 28.2817 39.16 28.8154 43.43Z" fill="#1E2229"/>
</svg>
